<svg width="21" height="20" viewBox="0 0 21 20" fill="none" xmlns="http://www.w3.org/2000/svg">
<path fill-rule="evenodd" clip-rule="evenodd" d="M8.3501 12.6738C11.4243 12.6738 14.0518 13.1397 14.0518 15.0005C14.0518 16.8613 11.4418 17.3405 8.3501 17.3405C5.2751 17.3405 2.64844 16.8788 2.64844 15.0172C2.64844 13.1555 5.2576 12.6738 8.3501 12.6738Z" stroke="#008CFE" stroke-width="1.5" stroke-linecap="round" stroke-linejoin="round"/>
<path fill-rule="evenodd" clip-rule="evenodd" d="M8.35007 10.0173C6.33174 10.0173 4.69507 8.38148 4.69507 6.36315C4.69507 4.34482 6.33174 2.70898 8.35007 2.70898C10.3676 2.70898 12.0042 4.34482 12.0042 6.36315C12.0117 8.37398 10.3867 10.0098 8.3759 10.0173H8.35007Z" stroke="#008CFE" stroke-width="1.5" stroke-linecap="round" stroke-linejoin="round"/>
<path d="M14.093 9.06839C15.4272 8.88089 16.4547 7.73589 16.4572 6.35005C16.4572 4.98422 15.4614 3.85089 14.1555 3.63672" stroke="#008CFE" stroke-width="1.5" stroke-linecap="round" stroke-linejoin="round"/>
<path d="M15.8533 12.2773C17.1458 12.4698 18.0483 12.9232 18.0483 13.8565C18.0483 14.499 17.6233 14.9157 16.9366 15.1765" stroke="#008CFE" stroke-width="1.5" stroke-linecap="round" stroke-linejoin="round"/>
</svg>
