<svg width="24" height="25" viewBox="0 0 24 25" fill="none" xmlns="http://www.w3.org/2000/svg">
<path d="M15 23.1504H9C3.57 23.1504 1.25 20.8304 1.25 15.4004V9.40039C1.25 3.97039 3.57 1.65039 9 1.65039H15C20.43 1.65039 22.75 3.97039 22.75 9.40039V15.4004C22.75 20.8304 20.43 23.1504 15 23.1504ZM9 3.15039C4.39 3.15039 2.75 4.79039 2.75 9.40039V15.4004C2.75 20.0104 4.39 21.6504 9 21.6504H15C19.61 21.6504 21.25 20.0104 21.25 15.4004V9.40039C21.25 4.79039 19.61 3.15039 15 3.15039H9Z" fill="#C239B3"/>
<path d="M12.0001 13.4801C11.8701 13.4801 11.7401 13.4501 11.6201 13.3801L6.32013 10.3201C5.96013 10.1101 5.84011 9.65009 6.05011 9.30009C6.26011 8.94009 6.72013 8.82009 7.07013 9.03009L11.9901 11.8801L16.8801 9.05009C17.2401 8.84009 17.7001 8.97009 17.9001 9.32009C18.1001 9.67009 17.9801 10.1401 17.6301 10.3401L12.3701 13.3801C12.2601 13.4401 12.1301 13.4801 12.0001 13.4801Z" fill="#C239B3"/>
<path d="M12 18.9205C11.59 18.9205 11.25 18.5805 11.25 18.1705V12.7305C11.25 12.3205 11.59 11.9805 12 11.9805C12.41 11.9805 12.75 12.3205 12.75 12.7305V18.1705C12.75 18.5805 12.41 18.9205 12 18.9205Z" fill="#C239B3"/>
<path d="M12.0002 19.1502C11.4202 19.1502 10.8503 19.0202 10.3903 18.7702L7.19025 16.9902C6.23025 16.4602 5.49023 15.1902 5.49023 14.0902V10.7002C5.49023 9.6102 6.24025 8.34019 7.19025 7.80019L10.3903 6.0202C11.3103 5.5102 12.6902 5.5102 13.6102 6.0202L16.8102 7.80019C17.7702 8.33019 18.5103 9.6002 18.5103 10.7002V14.0902C18.5103 15.1802 17.7602 16.4502 16.8102 16.9902L13.6102 18.7702C13.1502 19.0302 12.5802 19.1502 12.0002 19.1502ZM12.0002 7.15019C11.6702 7.15019 11.3502 7.21019 11.1202 7.34019L7.92026 9.12019C7.43026 9.39019 6.99023 10.1502 6.99023 10.7002V14.0902C6.99023 14.6502 7.43026 15.4002 7.92026 15.6702L11.1202 17.4502C11.5802 17.7102 12.4202 17.7102 12.8802 17.4502L16.0802 15.6702C16.5702 15.4002 17.0103 14.6402 17.0103 14.0902V10.7002C17.0103 10.1402 16.5702 9.39019 16.0802 9.12019L12.8802 7.34019C12.6502 7.21019 12.3302 7.15019 12.0002 7.15019Z" fill="#C239B3"/>
</svg>
