<svg width="24" height="25" viewBox="0 0 24 25" fill="none" xmlns="http://www.w3.org/2000/svg">
<path d="M11.9998 14.0997C11.8698 14.0997 11.7398 14.0697 11.6198 13.9997L2.78985 8.88971C2.42985 8.67971 2.30983 8.21968 2.51983 7.85968C2.72983 7.49968 3.17983 7.37966 3.54983 7.58966L11.9998 12.4797L20.3998 7.61969C20.7598 7.40969 21.2198 7.53971 21.4298 7.88971C21.6398 8.24971 21.5098 8.70967 21.1598 8.91967L12.3899 13.9997C12.2599 14.0597 12.1298 14.0997 11.9998 14.0997Z" fill="#FF0029"/>
<path d="M12 23.1599C11.59 23.1599 11.25 22.8199 11.25 22.4099V13.3398C11.25 12.9298 11.59 12.5898 12 12.5898C12.41 12.5898 12.75 12.9298 12.75 13.3398V22.4099C12.75 22.8199 12.41 23.1599 12 23.1599Z" fill="#FF0029"/>
<path d="M11.9999 23.55C11.0899 23.55 10.2199 23.34 9.55988 22.97L4.21988 20.0101C2.76988 19.2101 1.62988 17.28 1.62988 15.62V9.96001C1.62988 8.30001 2.76988 6.38006 4.21988 5.57006L9.55988 2.61004C10.9199 1.85004 13.0599 1.85004 14.4299 2.61004L19.7699 5.57006C21.2199 6.37006 22.3599 8.30001 22.3599 9.96001V13.62C22.3599 14.03 22.0199 14.37 21.6099 14.37C21.1999 14.37 20.8599 14.03 20.8599 13.62V9.96001C20.8599 8.86001 20.0099 7.42007 19.0499 6.89007L13.7099 3.93005C12.7999 3.42005 11.2099 3.42005 10.2999 3.93005L4.95987 6.89007C3.98987 7.43007 3.14987 8.86001 3.14987 9.96001V15.62C3.14987 16.72 3.99987 18.1601 4.95987 18.6901L10.2999 21.65C11.1799 22.14 12.8399 22.14 13.7099 21.65C14.0699 21.45 14.5299 21.5801 14.7299 21.9401C14.9299 22.3001 14.7999 22.76 14.4399 22.96C13.7799 23.34 12.9099 23.55 11.9999 23.55Z" fill="#FF0029"/>
<path d="M19.2 22.9498C17.02 22.9498 15.25 21.1798 15.25 18.9998C15.25 16.8198 17.02 15.0498 19.2 15.0498C21.38 15.0498 23.15 16.8198 23.15 18.9998C23.15 21.1798 21.38 22.9498 19.2 22.9498ZM19.2 16.5498C17.85 16.5498 16.75 17.6498 16.75 18.9998C16.75 20.3498 17.85 21.4498 19.2 21.4498C20.55 21.4498 21.65 20.3498 21.65 18.9998C21.65 17.6498 20.55 16.5498 19.2 16.5498Z" fill="#FF0029"/>
<path d="M22.9999 23.5503C22.8099 23.5503 22.6199 23.4803 22.4699 23.3303L21.4699 22.3303C21.1799 22.0403 21.1799 21.5602 21.4699 21.2702C21.7599 20.9802 22.2399 20.9802 22.5299 21.2702L23.5299 22.2702C23.8199 22.5602 23.8199 23.0403 23.5299 23.3303C23.3799 23.4803 23.1899 23.5503 22.9999 23.5503Z" fill="#FF0029"/>
</svg>
