<svg width="28" height="28" viewBox="0 0 28 28" fill="none" xmlns="http://www.w3.org/2000/svg">
<path d="M17.5003 26.5417C17.1853 26.5417 16.8936 26.3667 16.742 26.0983C16.5903 25.83 16.5903 25.4917 16.7536 25.2233L17.9786 23.1817C18.2236 22.7617 18.7603 22.6333 19.1803 22.8783C19.6003 23.1233 19.7286 23.66 19.4836 24.08L19.1686 24.605C22.3886 23.8467 24.8036 20.9533 24.8036 17.5C24.8036 17.0217 25.2003 16.625 25.6786 16.625C26.157 16.625 26.5536 17.0217 26.5536 17.5C26.542 22.4817 22.482 26.5417 17.5003 26.5417Z" fill="#4361EE"/>
<path d="M2.33325 11.3747C1.85492 11.3747 1.45825 10.978 1.45825 10.4997C1.45825 5.51801 5.51825 1.45801 10.4999 1.45801C10.8149 1.45801 11.1066 1.63301 11.2582 1.90135C11.4099 2.16968 11.4099 2.50801 11.2466 2.77635L10.0216 4.81801C9.77658 5.23801 9.23992 5.36636 8.81992 5.12136C8.39992 4.87636 8.27159 4.33966 8.51659 3.91966L8.83159 3.39464C5.61159 4.15298 3.19659 7.04634 3.19659 10.4997C3.20826 10.978 2.81159 11.3747 2.33325 11.3747Z" fill="#4361EE"/>
<path d="M20.6265 8.74973C20.4748 8.74973 20.3232 8.71476 20.1832 8.63309L15.5515 5.9497C15.1315 5.7047 14.9915 5.16807 15.2365 4.74807C15.4815 4.32807 16.0182 4.18805 16.4265 4.43305L20.6265 6.85974L24.7915 4.44473C25.2115 4.19973 25.7482 4.35142 25.9815 4.75975C26.2265 5.17975 26.0749 5.71638 25.6665 5.96138L21.0582 8.62141C20.9299 8.70308 20.7782 8.74973 20.6265 8.74973Z" fill="#4361EE"/>
<path d="M20.627 13.4983C20.1486 13.4983 19.752 13.1016 19.752 12.6233V7.86328C19.752 7.38495 20.1486 6.98828 20.627 6.98828C21.1053 6.98828 21.502 7.38495 21.502 7.86328V12.6233C21.502 13.1133 21.1053 13.4983 20.627 13.4983Z" fill="#4361EE"/>
<path d="M20.6264 13.7081C20.0897 13.7081 19.5414 13.5914 19.1098 13.3464L16.3098 11.7947C15.3998 11.293 14.7114 10.1148 14.7114 9.07643V6.11305C14.7114 5.06305 15.3998 3.89643 16.3214 3.38309L19.1214 1.83141C19.9848 1.35307 21.2798 1.35307 22.1548 1.83141L24.9548 3.38309C25.8648 3.88476 26.5531 5.06304 26.5531 6.10137V9.06475C26.5531 10.1148 25.8648 11.2814 24.9548 11.783L22.1548 13.3347C21.6998 13.5914 21.1631 13.7081 20.6264 13.7081ZM19.9614 3.34806L17.1614 4.89974C16.8114 5.09808 16.4614 5.69303 16.4614 6.0897V9.05308C16.4614 9.46141 16.8114 10.0564 17.1614 10.2431L19.9614 11.8064C20.2998 11.9931 20.9531 11.9931 21.2914 11.8064L24.0914 10.2547C24.4414 10.0564 24.7914 9.46142 24.7914 9.06475V6.10137C24.7914 5.69304 24.4414 5.09809 24.0914 4.91142L21.2914 3.35974C20.9531 3.1614 20.2881 3.16139 19.9614 3.34806Z" fill="#4361EE"/>
<path d="M7.37336 21.5827C7.22169 21.5827 7.07002 21.5478 6.93002 21.4661L2.29835 18.7827C1.87835 18.5377 1.73835 18.0011 1.98335 17.5811C2.22835 17.1611 2.76502 17.0211 3.17335 17.2661L7.37336 19.6927L11.5384 17.2777C11.9584 17.0327 12.495 17.1844 12.7284 17.5928C12.9734 18.0128 12.8217 18.5494 12.4134 18.7944L7.80502 21.4544C7.67669 21.5361 7.52503 21.5827 7.37336 21.5827Z" fill="#4361EE"/>
<path d="M7.37305 26.3313C6.89471 26.3313 6.49805 25.9346 6.49805 25.4563V20.6963C6.49805 20.218 6.89471 19.8213 7.37305 19.8213C7.85138 19.8213 8.24805 20.218 8.24805 20.6963V25.4563C8.24805 25.9463 7.86305 26.3313 7.37305 26.3313Z" fill="#4361EE"/>
<path d="M7.37326 26.5421C6.83659 26.5421 6.28826 26.4254 5.85659 26.1804L3.05658 24.6287C2.14658 24.1271 1.45825 22.9488 1.45825 21.9105V18.9471C1.45825 17.8971 2.14658 16.7304 3.05658 16.2287L5.85659 14.6771C6.71992 14.1988 8.02658 14.1988 8.88991 14.6771L11.6899 16.2287C12.5999 16.7304 13.2883 17.9087 13.2883 18.9471V21.9105C13.2883 22.9605 12.5999 24.1271 11.6782 24.6404L8.87825 26.1921C8.45825 26.4254 7.92159 26.5421 7.37326 26.5421ZM6.70825 16.1821L3.90826 17.7338C3.55826 17.9321 3.20825 18.5271 3.20825 18.9237V21.8871C3.20825 22.2954 3.55826 22.8905 3.90826 23.0771L6.70825 24.6287C7.04659 24.8154 7.69992 24.8154 8.03825 24.6287L10.8382 23.0771C11.1882 22.8788 11.5383 22.2838 11.5383 21.8871V18.9237C11.5383 18.5154 11.1882 17.9204 10.8382 17.7338L8.03825 16.1704C7.71159 15.9954 7.04659 15.9954 6.70825 16.1821Z" fill="#4361EE"/>
</svg>
