<svg width="21" height="20" viewBox="0 0 21 20" fill="none" xmlns="http://www.w3.org/2000/svg">
<path d="M4.78161 5.87946C4.78161 4.83863 5.62494 3.99529 6.66577 3.99446H7.52327C8.02077 3.99446 8.49744 3.79696 8.85077 3.44696L9.44994 2.84696C10.1841 2.10863 11.3774 2.10529 12.1158 2.83946L12.1166 2.84029L12.1241 2.84696L12.7241 3.44696C13.0774 3.79779 13.5541 3.99446 14.0516 3.99446H14.9083C15.9491 3.99446 16.7933 4.83779 16.7933 5.87946V6.73529C16.7933 7.23279 16.9899 7.71029 17.3408 8.06363L17.9408 8.66363C18.6791 9.39779 18.6833 10.5911 17.9491 11.3295L17.9483 11.3303L17.9408 11.3378L17.3408 11.9378C16.9899 12.2903 16.7933 12.767 16.7933 13.2645V14.122C16.7933 15.1628 15.9499 16.0061 14.9091 16.0061H14.9083H14.0499C13.5524 16.0061 13.0749 16.2036 12.7224 16.5545L12.1224 17.1536C11.3891 17.892 10.1966 17.8961 9.45827 17.1636C9.45744 17.1628 9.45661 17.162 9.45577 17.1611L9.44827 17.1536L8.84911 16.5545C8.49661 16.2036 8.01911 16.007 7.52161 16.0061H6.66577C5.62494 16.0061 4.78161 15.1628 4.78161 14.122V13.2628C4.78161 12.7653 4.58411 12.2886 4.23327 11.9361L3.63411 11.3361C2.89577 10.6028 2.89161 9.41029 3.62494 8.67196C3.62494 8.67113 3.62577 8.67029 3.62661 8.66946L3.63411 8.66196L4.23327 8.06196C4.58411 7.70863 4.78161 7.23196 4.78161 6.73363V5.87946" stroke="#F3981E" stroke-width="1.5" stroke-linecap="round" stroke-linejoin="round"/>
<path d="M8.64551 12.1427L12.9288 7.85938" stroke="#F3981E" stroke-width="1.5" stroke-linecap="round" stroke-linejoin="round"/>
<path d="M12.8656 12.0827H12.8731" stroke="#F3981E" stroke-width="2" stroke-linecap="round" stroke-linejoin="round"/>
<path d="M8.69881 7.91667H8.70631" stroke="#F3981E" stroke-width="2" stroke-linecap="round" stroke-linejoin="round"/>
</svg>
