<svg width="18" height="20" viewBox="0 0 18 20" fill="none" xmlns="http://www.w3.org/2000/svg">
<path d="M6.70246 17.3089V14.7532C6.70245 14.1032 7.23238 13.575 7.88896 13.5707H10.294C10.9537 13.5707 11.4885 14.1001 11.4885 14.7532V14.7532V17.3168C11.4884 17.8687 11.9333 18.3197 12.4906 18.3327H14.094C15.6924 18.3327 16.9881 17.0499 16.9881 15.4675V15.4675V8.19755C16.9796 7.57504 16.6843 6.99047 16.1864 6.61021L10.7029 2.2371C9.74223 1.47565 8.37662 1.47565 7.41597 2.2371L1.95647 6.61815C1.45667 6.99687 1.16094 7.5824 1.15479 8.20548V15.4675C1.15479 17.0499 2.45051 18.3327 4.04888 18.3327H5.65225C6.22341 18.3327 6.68643 17.8743 6.68643 17.3089V17.3089" stroke="#4361EE" stroke-width="1.5" stroke-linecap="round" stroke-linejoin="round"/>
</svg>
