<svg width="44" height="44" viewBox="0 0 44 44" fill="none" xmlns="http://www.w3.org/2000/svg">
<g filter="url(#filter0_d_849_4656)">
<rect x="2" y="1" width="40" height="40" rx="8" fill="white"/>
<rect x="2.5" y="1.5" width="39" height="39" rx="7.5" stroke="#CED5DC"/>
<path d="M14 27H30C30.55 27 31 26.55 31 26C31 25.45 30.55 25 30 25H14C13.45 25 13 25.45 13 26C13 26.55 13.45 27 14 27ZM14 22H30C30.55 22 31 21.55 31 21C31 20.45 30.55 20 30 20H14C13.45 20 13 20.45 13 21C13 21.55 13.45 22 14 22ZM13 16C13 16.55 13.45 17 14 17H30C30.55 17 31 16.55 31 16C31 15.45 30.55 15 30 15H14C13.45 15 13 15.45 13 16Z" fill="#666666"/>
</g>
<defs>
<filter id="filter0_d_849_4656" x="0" y="0" width="44" height="44" filterUnits="userSpaceOnUse" color-interpolation-filters="sRGB">
<feFlood flood-opacity="0" result="BackgroundImageFix"/>
<feColorMatrix in="SourceAlpha" type="matrix" values="0 0 0 0 0 0 0 0 0 0 0 0 0 0 0 0 0 0 127 0" result="hardAlpha"/>
<feOffset dy="1"/>
<feGaussianBlur stdDeviation="1"/>
<feColorMatrix type="matrix" values="0 0 0 0 0.0941176 0 0 0 0 0.0941176 0 0 0 0 0.0941176 0 0 0 0.07 0"/>
<feBlend mode="normal" in2="BackgroundImageFix" result="effect1_dropShadow_849_4656"/>
<feBlend mode="normal" in="SourceGraphic" in2="effect1_dropShadow_849_4656" result="shape"/>
</filter>
</defs>
</svg>
