<svg width="22" height="22" viewBox="0 0 22 22" fill="none" xmlns="http://www.w3.org/2000/svg">
<path d="M1.22217 6.11155V3.6671C1.22217 3.01879 1.47971 2.39704 1.93813 1.93862C2.39655 1.4802 3.01831 1.22266 3.66661 1.22266H6.11106M1.22217 15.8893V18.3338C1.22217 18.9821 1.47971 19.6038 1.93813 20.0622C2.39655 20.5207 3.01831 20.7782 3.66661 20.7782H6.11106M15.8888 1.22266H18.3333C18.9816 1.22266 19.6033 1.4802 20.0618 1.93862C20.5202 2.39704 20.7777 3.01879 20.7777 3.6671V6.11155M15.8888 20.7782H18.3333C18.9816 20.7782 19.6033 20.5207 20.0618 20.0622C20.5202 19.6038 20.7777 18.9821 20.7777 18.3338V15.8893M4.88883 11.0004H17.1111" stroke="#4361EE" stroke-width="1.5" stroke-linecap="round" stroke-linejoin="round"/>
</svg>
