<svg width="25" height="24" viewBox="0 0 25 24" fill="none" xmlns="http://www.w3.org/2000/svg">
<path fill-rule="evenodd" clip-rule="evenodd" d="M18.5001 20.417C20.3731 20.417 21.8921 18.899 21.8931 17.026V17.024V14.324C20.6561 14.324 19.6541 13.322 19.6531 12.085C19.6531 10.849 20.6551 9.846 21.8921 9.846H21.8931V7.146C21.8951 5.272 20.3781 3.752 18.5051 3.75H18.4991H6.78707C4.91307 3.75 3.39407 5.268 3.39307 7.142V7.143V9.933C4.58707 9.891 5.58807 10.825 5.63007 12.019C5.63107 12.041 5.63207 12.063 5.63207 12.085C5.63307 13.32 4.63407 14.322 3.39907 14.324H3.39307V17.024C3.39207 18.897 4.91107 20.417 6.78407 20.417H6.78507H18.5001Z" stroke="#C239B3" stroke-width="1.5" stroke-linecap="round" stroke-linejoin="round"/>
<path fill-rule="evenodd" clip-rule="evenodd" d="M13.0142 9.06303L13.6302 10.31C13.6902 10.432 13.8062 10.517 13.9412 10.537L15.3182 10.738C15.6592 10.788 15.7942 11.206 15.5482 11.445L14.5522 12.415C14.4542 12.51 14.4102 12.647 14.4322 12.782L14.6672 14.152C14.7252 14.491 14.3702 14.749 14.0662 14.589L12.8352 13.942C12.7142 13.878 12.5702 13.878 12.4492 13.942L11.2192 14.589C10.9142 14.749 10.5592 14.491 10.6172 14.152L10.8522 12.782C10.8752 12.647 10.8302 12.51 10.7322 12.415L9.73716 11.445C9.49116 11.206 9.62616 10.788 9.96616 10.738L11.3432 10.537C11.4782 10.517 11.5952 10.432 11.6552 10.31L12.2702 9.06303C12.4222 8.75503 12.8622 8.75503 13.0142 9.06303Z" stroke="#C239B3" stroke-width="1.5" stroke-linecap="round" stroke-linejoin="round"/>
</svg>
