<svg width="21" height="20" viewBox="0 0 21 20" fill="none" xmlns="http://www.w3.org/2000/svg">
    <path fill-rule="evenodd" clip-rule="evenodd"
        d="M15.0953 17.0142C16.6561 17.0142 17.9219 15.7492 17.9228 14.1883V14.1867V11.9367C16.8919 11.9367 16.0569 11.1017 16.0561 10.0708C16.0561 9.04083 16.8911 8.205 17.9219 8.205H17.9228V5.955C17.9244 4.39333 16.6603 3.12667 15.0994 3.125H15.0944H5.33444C3.77277 3.125 2.50694 4.39 2.5061 5.95167V5.9525V8.2775C3.5011 8.2425 4.33527 9.02083 4.37027 10.0158C4.3711 10.0342 4.37194 10.0525 4.37194 10.0708C4.37277 11.1 3.54027 11.935 2.5111 11.9367H2.5061V14.1867C2.50527 15.7475 3.7711 17.0142 5.33194 17.0142H5.33277H15.0953Z"
        stroke="#0FA44A" stroke-width="1.5" stroke-linecap="round" stroke-linejoin="round" />
    <path fill-rule="evenodd" clip-rule="evenodd"
        d="M10.5237 7.55188L11.037 8.59104C11.087 8.69271 11.1837 8.76354 11.2962 8.78021L12.4437 8.94771C12.7278 8.98937 12.8403 9.33771 12.6353 9.53687L11.8053 10.3452C11.7237 10.4244 11.687 10.5385 11.7053 10.651L11.9012 11.7927C11.9495 12.0752 11.6537 12.2902 11.4003 12.1569L10.3745 11.6177C10.2737 11.5644 10.1537 11.5644 10.0528 11.6177L9.02785 12.1569C8.77368 12.2902 8.47785 12.0752 8.52618 11.7927L8.72201 10.651C8.74118 10.5385 8.70368 10.4244 8.62201 10.3452L7.79285 9.53687C7.58785 9.33771 7.70035 8.98937 7.98368 8.94771L9.13118 8.78021C9.24368 8.76354 9.34118 8.69271 9.39118 8.59104L9.90368 7.55188C10.0303 7.29521 10.397 7.29521 10.5237 7.55188Z"
        stroke="#0FA44A" stroke-width="1.5" stroke-linecap="round" stroke-linejoin="round" />
</svg>