<svg width="21" height="20" viewBox="0 0 21 20" fill="none" xmlns="http://www.w3.org/2000/svg">
<path d="M10.4958 13.8974V11.7832" stroke="#E37D80" stroke-width="1.5" stroke-linecap="round" stroke-linejoin="round"/>
<path fill-rule="evenodd" clip-rule="evenodd" d="M15.6582 4.44141C17.0665 4.44141 18.1998 5.58307 18.1998 6.99141V9.85807C16.1498 11.0581 13.4415 11.7831 10.4915 11.7831C7.5415 11.7831 4.8415 11.0581 2.7915 9.85807V6.98307C2.7915 5.57474 3.93317 4.44141 5.3415 4.44141H15.6582Z" stroke="#E37D80" stroke-width="1.5" stroke-linecap="round" stroke-linejoin="round"/>
<path d="M13.4124 4.43768V4.13268C13.4124 3.11602 12.5874 2.29102 11.5708 2.29102H9.42077C8.4041 2.29102 7.5791 3.11602 7.5791 4.13268V4.43768" stroke="#E37D80" stroke-width="1.5" stroke-linecap="round" stroke-linejoin="round"/>
<path d="M2.81201 12.9023L2.96951 14.9932C3.07618 16.4023 4.25035 17.4915 5.66285 17.4915H15.3287C16.7412 17.4915 17.9153 16.4023 18.022 14.9932L18.1795 12.9023" stroke="#E37D80" stroke-width="1.5" stroke-linecap="round" stroke-linejoin="round"/>
</svg>
